Genre:Action | Sci-Fi | Thriller
Language:English  http://www.imdb.com/title/tt1043651/
Source:720p x264-playHD.Thx


Format : Matroska
File size : 1.82 GiB
Duration : 1h 26mn
Overall bit rate : 2 995 Kbps


Video
Format settings, CABAC : Yes
Format settings, ReFrames : 4 frames
Codec ID : V_MPEG4/ISO/AVC
Duration : 1h 26mn
Bit rate : 2 678 Kbps
Width : 1 280 pixels
Height : 720 pixels
Display aspect ratio : 16:9
Frame rate mode : Variable
Frame rate : 23.976 fps
Color space : YUV
Chroma subsampling : 4:2:0
Bit depth : 8 bits
Scan type : Progressive
Bits/(Pixel*Frame) : 0.121
Stream size : 1.55 GiB (85%)
Writing library : x264


Audio
ID : 2
Format : AC-3
Format/Info : Audio Coding 3
Mode extension : CM (complete main)
Codec ID : A_AC3
Duration : 1h 26mn
Bit rate mode : Constant
Bit rate : 384 Kbps
Channel(s) : 6 channels
Channel positions : Front: L C R, Side: L R, LFE
Sampling rate : 48.0 KHz
Bit depth : 16 bits
Video delay : -1mn 5s
Stream size : 238 MiB (13%)
Language : English


Plot:
After losing contact with its researchers on a remote island, a military corporation hires a group of scientists and soldiers to find out what went wrong

